<?xml version="1.0" standalone="no"?>
<!DOCTYPE svg PUBLIC "-//W3C//DTD SVG 20010904//EN"
 "http://www.w3.org/TR/2001/REC-SVG-20010904/DTD/svg10.dtd">
<svg version="1.0" xmlns="http://www.w3.org/2000/svg"
 width="275.000000pt" height="275.000000pt" viewBox="0 0 275.000000 275.000000"
 preserveAspectRatio="xMidYMid meet">
<metadata>
Created by potrace 1.11, written by Peter Selinger 2001-2013
</metadata>
<g transform="translate(0.000000,275.000000) scale(0.100000,-0.100000)"
fill="#000000" stroke="none">
<path d="M853 1959 c-43 -9 -73 -31 -93 -69 -15 -29 -17 -57 -16 -175 3 -190
-11 -227 -87 -242 -47 -10 -63 -33 -22 -33 40 0 83 -29 98 -67 17 -44 17 -468
-1 -500 -20 -36 -65 -53 -148 -56 -51 -1 -79 -6 -82 -14 -3 -10 37 -13 180
-13 164 0 186 2 215 20 60 36 65 57 67 319 2 179 5 241 16 257 18 29 62 54 95
54 41 0 25 22 -25 34 -77 19 -84 39 -85 232 l0 166 33 29 c32 29 67 36 145 30
19 -2 27 2 27 13 0 12 -12 16 -52 17 -29 0 -94 1 -145 2 -50 1 -104 -1 -120
-4z"/>
<path d="M1387 1962 c-6 -2 -28 -10 -48 -19 -60 -25 -71 -63 -73 -253 l-1
-162 -33 -29 c-20 -18 -43 -29 -62 -29 -20 0 -30 -5 -30 -15 0 -8 9 -15 20
-15 34 0 79 -28 95 -61 14 -25 16 -67 13 -264 l-3 -235 -28 -27 c-23 -24 -38
-29 -99 -33 -46 -3 -73 -10 -76 -18 -3 -10 31 -13 165 -12 188 2 207 7 241 69
18 32 20 54 21 206 0 324 -2 300 27 334 18 21 38 33 65 37 44 7 55 34 14 34
-39 0 -81 26 -94 57 -15 38 -18 322 -3 349 21 40 58 55 137 56 56 1 75 4 75
14 0 10 -14 14 -47 14 -27 1 -96 2 -156 3 -59 1 -113 1 -120 -1z"/>
<path d="M1899 1958 c-23 -4 -51 -15 -61 -25 -44 -40 -50 -67 -49 -233 l2
-159 -32 -35 c-24 -28 -39 -36 -65 -36 -24 0 -34 -5 -34 -15 0 -10 10 -15 28
-15 16 0 42 -12 62 -29 l35 -29 3 -246 3 -247 -34 -34 c-33 -33 -38 -35 -106
-35 -56 0 -71 -3 -71 -15 0 -13 25 -15 168 -15 160 0 169 1 203 24 52 35 58
69 59 319 0 119 4 227 9 240 13 33 45 58 83 64 18 3 35 6 37 8 8 9 -12 25 -31
25 -29 0 -75 30 -87 57 -6 13 -11 91 -12 178 -1 142 0 156 20 184 24 33 58 44
143 43 40 0 58 4 62 14 3 9 -1 14 -12 15 -140 4 -289 3 -323 -3z"/>
<path d="M78 1453 c-22 -9 -43 -28 -55 -51 -20 -35 -21 -53 -21 -275 1 -266 5
-287 69 -319 47 -25 332 -27 323 -3 -4 10 -20 15 -50 15 -57 0 -88 16 -109 54
-14 27 -16 62 -13 268 l3 238 28 27 c26 26 33 28 125 30 135 2 132 2 132 16 0
20 -383 20 -432 0z"/>
<path d="M2235 1460 c-10 -16 16 -21 108 -21 186 1 189 -3 189 -308 0 -252 -5
-277 -60 -300 -18 -8 -96 -13 -207 -14 -132 -1 -179 -5 -183 -14 -3 -10 58
-13 283 -13 316 0 328 2 365 63 18 29 20 52 20 277 0 222 -2 248 -19 273 -39
60 -47 62 -278 64 -117 1 -215 -2 -218 -7z"/>
</g>
</svg>
