<svg xmlns="http://www.w3.org/2000/svg" viewBox="0 0 210.58 111.46"><defs><style>.a{fill:#fff;}</style></defs><title>OFFFBRAND-10</title><path class="a" d="M112.56,163.12H84.8a10,10,0,0,0-7.38,3.31,7.36,7.36,0,0,0-.89,1.12,10.38,10.38,0,0,0-1.82,5.89v31.25A10.22,10.22,0,0,0,84.8,215h18.91a1,1,0,0,0,0-2.1H99.24a8.12,8.12,0,0,1-8-8.22V173.44a8.12,8.12,0,0,1,8-8.22h13.32A1,1,0,0,0,112.56,163.12Z" transform="translate(-74.71 -125.27)"/><path class="a" d="M275.21,163.12h-28a1,1,0,0,0,0,2.1h13.55a8.12,8.12,0,0,1,8,8.22v31.25a8.11,8.11,0,0,1-8,8.22H235.09a1,1,0,0,0,0,2.1h40.11a10.22,10.22,0,0,0,10.09-10.32V173.44A10.22,10.22,0,0,0,275.21,163.12Z" transform="translate(-74.71 -125.27)"/><path class="a" d="M163.23,125.27h-21.6a10.22,10.22,0,0,0-10.09,10.33l0.12,19.3a8.12,8.12,0,0,1-8,8.22h-1.21a1,1,0,0,0-1,1h0a1,1,0,0,0,1,1h1.21a8.12,8.12,0,0,1,8,8.22v31.25a8.11,8.11,0,0,1-8,8.22H114a1,1,0,0,0,0,2.1h24.16A10.22,10.22,0,0,0,148.2,204.7l0.12-31.26a8.12,8.12,0,0,1,8-8.22h1.21a1,1,0,0,0,1-1h0a1,1,0,0,0-1-1h-1.21a8.12,8.12,0,0,1-8-8.23l-0.24-19.29a8.12,8.12,0,0,1,8-8.22h7.15A1,1,0,0,0,163.23,125.27Z" transform="translate(-74.71 -125.27)"/><path class="a" d="M204.81,125.27H181.86a10.21,10.21,0,0,0-10.09,10.33l0.11,19.3a8.12,8.12,0,0,1-8,8.22h-1.21a1,1,0,0,0-1,1h0a1,1,0,0,0,1,1h1.21a8.12,8.12,0,0,1,8,8.22v31.25a8.12,8.12,0,0,1-8,8.22h-7.08a1,1,0,0,0,0,2.1h21.52a10.22,10.22,0,0,0,10.09-10.31l0.11-31.26a8.12,8.12,0,0,1,8-8.22h1.21a1.05,1.05,0,0,0,1.05-1h0a1.05,1.05,0,0,0-1.05-1h-1.21a8.12,8.12,0,0,1-8-8.23l-0.23-19.29a8.12,8.12,0,0,1,8-8.22h8.5A1,1,0,0,0,204.81,125.27Z" transform="translate(-74.71 -125.27)"/><path class="a" d="M244.73,125.27H221.79a10.22,10.22,0,0,0-10.09,10.33l0.11,19.3a8.12,8.12,0,0,1-8,8.22h-1.21a1,1,0,0,0-1,1h0a1,1,0,0,0,1,1h1.21a8.12,8.12,0,0,1,8,8.22v31.25a8.12,8.12,0,0,1-8,8.22h-7.08a1,1,0,0,0,0,2.1h21.52a10.22,10.22,0,0,0,10.09-10.31l0.12-31.26a8.12,8.12,0,0,1,8-8.22h1.21a1,1,0,0,0,1-1h0a1,1,0,0,0-1-1h-1.21a8.12,8.12,0,0,1-8-8.23l-0.24-19.29a8.12,8.12,0,0,1,8-8.22h8.5A1,1,0,1,0,244.73,125.27Z" transform="translate(-74.71 -125.27)"/><path class="a" d="M92.35,223.24a6.6,6.6,0,0,1,0,11,12.22,12.22,0,0,1-14,0,6.6,6.6,0,0,1,0-11A12.11,12.11,0,0,1,92.35,223.24Zm-0.81.93a11,11,0,0,0-12.35,0,5.37,5.37,0,0,0,0,9.16,11,11,0,0,0,12.35,0A5.38,5.38,0,0,0,91.55,224.17Z" transform="translate(-74.71 -125.27)"/><path class="a" d="M118.3,228.63a0.55,0.55,0,0,1-.63.63H100.34v6.1a0.63,0.63,0,0,1-1.26,0v-14.1h18.59a0.63,0.63,0,0,1,0,1.26H100.34V228h17.33A0.56,0.56,0,0,1,118.3,228.63Z" transform="translate(-74.71 -125.27)"/><path class="a" d="M141.42,228.63a0.55,0.55,0,0,1-.63.63H123.46v6.1a0.63,0.63,0,1,1-1.26,0v-14.1h18.58a0.63,0.63,0,1,1,0,1.26H123.46V228h17.33A0.56,0.56,0,0,1,141.42,228.63Z" transform="translate(-74.71 -125.27)"/><path class="a" d="M164.54,228.63a0.56,0.56,0,0,1-.63.63H146.58v6.1a0.63,0.63,0,1,1-1.26,0v-14.1h18.59a0.63,0.63,0,1,1,0,1.26H146.58V228h17.33A0.56,0.56,0,0,1,164.54,228.63Z" transform="translate(-74.71 -125.27)"/><path class="a" d="M187.66,232a3.88,3.88,0,0,1-1.17,2.82,3.81,3.81,0,0,1-2.81,1.18H168.47V221.27h15.22a3.81,3.81,0,0,1,2.81,1.18,3.87,3.87,0,0,1,1.17,2.82,3.78,3.78,0,0,1-1.86,3.37A3.77,3.77,0,0,1,187.66,232Zm-18-9.47V228h14a2.6,2.6,0,0,0,1.92-.81,2.74,2.74,0,0,0,0-3.86,2.6,2.6,0,0,0-1.92-.81h-14Zm15.9,11.4a2.74,2.74,0,0,0,0-3.86,2.6,2.6,0,0,0-1.92-.81h-14v5.48h14A2.6,2.6,0,0,0,185.6,233.93Z" transform="translate(-74.71 -125.27)"/><path class="a" d="M210.75,235.36a0.66,0.66,0,0,1-.63.63,0.57,0.57,0,0,1-.34-0.11l-6.58-4.38H192.8v3.86a0.63,0.63,0,1,1-1.26,0v-14.1h14.1a5.12,5.12,0,0,1,0,10.24h-0.18l5,3.34A0.58,0.58,0,0,1,210.75,235.36Zm-18-5.12h12.84a3.86,3.86,0,0,0,0-7.72H192.8v7.72Z" transform="translate(-74.71 -125.27)"/><path class="a" d="M238.75,235.38a0.54,0.54,0,0,1-.61.61,0.63,0.63,0,0,1-.49-0.22L234,231.5H219.33l-3.55,4.26a0.54,0.54,0,0,1-.45.22,0.57,0.57,0,0,1-.65-0.65,0.56,0.56,0,0,1,.13-0.38l11.69-14,12.08,14A0.64,0.64,0,0,1,238.75,235.38Zm-5.83-5.14-6.37-7.39-6.15,7.39h12.53Z" transform="translate(-74.71 -125.27)"/><path class="a" d="M261.75,222v14.7l-18-13.47V235.5a0.63,0.63,0,0,1-1.26,0V220.77l18,13.47V222A0.63,0.63,0,0,1,261.75,222Z" transform="translate(-74.71 -125.27)"/><path class="a" d="M283.56,224.38a7.34,7.34,0,0,1,0,8.5,7.09,7.09,0,0,1-3.56,2.68,7.34,7.34,0,0,1-2.45.43H265.7V221.27h11.85a7.32,7.32,0,0,1,2.45.43A7.11,7.11,0,0,1,283.56,224.38Zm-1,7.78a6.13,6.13,0,0,0-2.94-9.29,6.06,6.06,0,0,0-2-.34H267v12.21h10.59a6.06,6.06,0,0,0,2-.33A6,6,0,0,0,282.54,232.15Z" transform="translate(-74.71 -125.27)"/></svg>